# xmcd CD database file
#
# Track frame offsets:
#	150
#	21117
#	38515
#	51570
#	71987
#	86460
#	107640
#	125892
#	146845
#	160850
#	185287
#	203542
#	220390
#	237507
#	246457
#
# Disc length: 3527 seconds
#
# Revision: 7
# Processed by: cddbd v1.5.2PL0 Copyright (c) Steve Scherf et al.
# Submitted via: CDex 1.81
#
DISCID=e20dc50f
DTITLE=Various Artist - Runaway Bride
DYEAR=1999
DGENRE=Soundtrack
TTITLE0=U2 - I Still Haven't Found What I'm Looking For
TTITLE1=Dixie Chicks - Ready To Run
TTITLE2=Martina McBride - I Love You
TTITLE3=Daryl Hall and John Oates - Maneater
TTITLE4=Evan And Jaron - From My Head To My Heart
TTITLE5=Eric Clapton - Blue Eyes Blue
TTITLE6=Daryl Hall and John Oates - And That's What Hurts
TTITLE7=Shawn Colvin - Never Saw Blue Like That
TTITLE8=Dixie Chicks - You Can't Hurry Love
TTITLE9=Marc Anthony - You Sang To Me
TTITLE10=Allure - You're The Only One For Me
TTITLE11=Coco Lee - Before I Fall In Love
TTITLE12=Kenny Loggins Feat. Human Nature - Once In A Lifetime
TTITLE13=Billy Joel - Where Were You (On Your Wedding Day)?
TTITLE14=Miles Davis - It Never Entered My Mind
EXTD=YEAR: 1999
EXTT0=
EXTT1=
EXTT2=
EXTT3=
EXTT4=
EXTT5=
EXTT6=
EXTT7=
EXTT8=
EXTT9=
EXTT10=
EXTT11=
EXTT12=
EXTT13=
EXTT14=
PLAYORDER=
